<svg width="34" height="34" viewBox="0 0 34 34" fill="none" xmlns="http://www.w3.org/2000/svg">
<g id="google plus">
<rect id="Rectangle Copy 3" width="34" height="34" rx="3" fill="#373737"/>
<g id="Group 16 Copy 3">
<g id="Group Copy">
<path id="Path" d="M7.22313 16.9619C7.10387 13.7604 9.85429 10.8019 12.9975 10.7635C14.5996 10.6242 16.1581 11.2585 17.3705 12.2929C16.8732 12.8505 16.3672 13.4015 15.8267 13.9174C14.7594 13.2563 13.4743 12.7525 12.2269 13.1999C10.215 13.784 8.99655 16.206 9.74109 18.2127C10.3577 20.3085 12.858 21.4587 14.8175 20.5783C15.8322 20.2079 16.5012 19.2534 16.7947 18.2277C15.6319 18.2041 14.4687 18.2189 13.3058 18.1861C13.3029 17.4807 13.3 16.778 13.3029 16.0726C15.2422 16.0696 17.1844 16.0637 19.1266 16.0814C19.2458 17.8098 18.9957 19.6595 17.8936 21.0467C16.3846 23.0268 13.5965 23.608 11.3284 22.8312C8.92125 22.0251 7.17074 19.5527 7.22313 16.9619Z" fill="white"/>
<path id="Path_2" d="M22.9067 14.2937C23.4824 14.2937 24.058 14.2937 24.6364 14.2937C24.6395 14.8837 24.6451 15.4766 24.6482 16.0664C25.2266 16.0723 25.8082 16.0752 26.3869 16.0782C26.3869 16.6682 26.3869 17.2549 26.3869 17.8449C25.8085 17.8479 25.2269 17.8508 24.6482 17.8538C24.6424 18.4467 24.6395 19.0364 24.6364 19.6294C24.058 19.6264 23.479 19.6294 22.9035 19.6294C22.898 19.0364 22.898 18.4467 22.8919 17.8567C22.3135 17.8505 21.7319 17.8479 21.1533 17.8446C21.1533 17.2547 21.1533 16.6679 21.1533 16.0779C21.7319 16.0749 22.3106 16.072 22.8919 16.0661C22.8948 15.4766 22.9006 14.8837 22.9067 14.2937Z" fill="white"/>
</g>
</g>
</g>
</svg>
