<svg width="34" height="34" viewBox="0 0 34 34" fill="none" xmlns="http://www.w3.org/2000/svg">
<g id="instagram">
<rect id="Rectangle Copy 4" width="34" height="34" rx="3" fill="#373737"/>
<g id="Group 18 Copy 3">
<g id="instagram (6) copy">
<path id="Shape" fill-rule="evenodd" clip-rule="evenodd" d="M13.8125 8.5H20.1875C23.1211 8.5 25.5 10.8789 25.5 13.8125V20.1875C25.5 23.1211 23.1211 25.5 20.1875 25.5H13.8125C10.8789 25.5 8.5 23.1211 8.5 20.1875V13.8125C8.5 10.8789 10.8789 8.5 13.8125 8.5ZM20.1875 23.9062C22.2381 23.9062 23.9062 22.2381 23.9062 20.1875V13.8125C23.9062 11.7619 22.2381 10.0938 20.1875 10.0938H13.8125C11.7619 10.0938 10.0938 11.7619 10.0938 13.8125V20.1875C10.0938 22.2381 11.7619 23.9062 13.8125 23.9062H20.1875Z" fill="white"/>
<path id="Shape_2" fill-rule="evenodd" clip-rule="evenodd" d="M12.75 17C12.75 14.6529 14.6529 12.75 17 12.75C19.3471 12.75 21.25 14.6529 21.25 17C21.25 19.3471 19.3471 21.25 17 21.25C14.6529 21.25 12.75 19.3471 12.75 17ZM14.3438 17C14.3438 18.4641 15.5359 19.6562 17 19.6562C18.4641 19.6562 19.6562 18.4641 19.6562 17C19.6562 15.5348 18.4641 14.3438 17 14.3438C15.5359 14.3438 14.3438 15.5348 14.3438 17Z" fill="white"/>
<path id="Oval" d="M21.6042 13.4583C22.191 13.4583 22.6667 12.9826 22.6667 12.3958C22.6667 11.8089 22.191 11.3333 21.6042 11.3333C21.0174 11.3333 20.5417 11.8089 20.5417 12.3958C20.5417 12.9826 21.0174 13.4583 21.6042 13.4583Z" fill="white"/>
</g>
</g>
</g>
</svg>
