<svg width="34" height="34" viewBox="0 0 34 34" fill="none" xmlns="http://www.w3.org/2000/svg">
<g id="pinterest">
<rect id="Rectangle Copy 2" width="34" height="34" rx="3" fill="#373737"/>
<g id="Group 14 Copy 3">
<g id="pinterest copy">
<path id="XMLID_799_" d="M21.8089 9.80026C20.7556 8.77366 19.298 8.20825 17.7046 8.20825C15.2706 8.20825 13.7736 9.22127 12.9464 10.071C11.9269 11.1183 11.3423 12.5088 11.3423 13.8861C11.3423 15.6155 12.0547 16.9428 13.2478 17.4366C13.3279 17.47 13.4085 17.4867 13.4875 17.4867C13.7392 17.4867 13.9386 17.3195 14.0077 17.0513C14.048 16.8974 14.1413 16.5178 14.1818 16.353C14.2687 16.0276 14.1985 15.871 14.0091 15.6444C13.6641 15.2299 13.5034 14.7397 13.5034 14.1017C13.5034 12.2068 14.8931 10.1928 17.4688 10.1928C19.5126 10.1928 20.7821 11.3722 20.7821 13.2706C20.7821 14.4686 20.528 15.5781 20.0663 16.3948C19.7455 16.9623 19.1815 17.6387 18.3155 17.6387C17.941 17.6387 17.6046 17.4825 17.3924 17.2103C17.1919 16.9529 17.1258 16.6203 17.2064 16.2738C17.2975 15.8823 17.4217 15.4738 17.542 15.079C17.7612 14.3579 17.9685 13.6767 17.9685 13.1333C17.9685 12.2038 17.4057 11.5793 16.5682 11.5793C15.5038 11.5793 14.6699 12.677 14.6699 14.0782C14.6699 14.7654 14.8498 15.2794 14.9312 15.4768C14.7971 16.0536 14.0002 19.483 13.849 20.1297C13.7616 20.5072 13.2351 23.4888 14.1066 23.7266C15.0858 23.9937 15.961 21.0898 16.0501 20.7617C16.1223 20.4948 16.3749 19.4857 16.5297 18.8653C17.0024 19.3276 17.7635 19.6402 18.5041 19.6402C19.9002 19.6402 21.1557 19.0023 22.0394 17.8442C22.8965 16.7209 23.3686 15.1552 23.3686 13.4358C23.3686 12.0917 22.8 10.7665 21.8089 9.80026Z" fill="white"/>
</g>
</g>
</g>
</svg>
