<svg width="34" height="34" viewBox="0 0 34 34" fill="none" xmlns="http://www.w3.org/2000/svg">
<g id="twitter">
<rect id="Rectangle Copy" width="34" height="34" rx="3" fill="#373737"/>
<g id="Group 13 Copy 3">
<path id="Path Copy" d="M24.7917 12.1344C24.2185 12.3903 23.6019 12.5634 22.9553 12.6407C23.6155 12.2424 24.1221 11.6123 24.3613 10.8602C23.7435 11.2292 23.059 11.4968 22.3311 11.6411C21.7479 11.0158 20.9169 10.625 19.9968 10.625C18.2315 10.625 16.7997 12.0665 16.7997 13.8438C16.7997 14.0961 16.8281 14.3416 16.8829 14.5773C14.2259 14.4432 11.8699 13.1618 10.2929 11.2138C10.0178 11.6891 9.85996 12.2424 9.85996 12.8322C9.85996 13.9487 10.4248 14.9343 11.2822 15.5114C10.7584 15.4948 10.2651 15.35 9.83421 15.1083C9.83397 15.122 9.83397 15.1357 9.83397 15.1491C9.83397 16.7087 10.9365 18.0095 12.3988 18.305C12.1308 18.3789 11.8478 18.4181 11.5566 18.4181C11.3501 18.4181 11.1501 18.3981 10.9551 18.3607C11.3618 19.6392 12.5423 20.5698 13.9416 20.596C12.8473 21.4594 11.4689 21.9739 9.97059 21.9739C9.71309 21.9739 9.45796 21.9587 9.20833 21.9287C10.6225 22.8423 12.3034 23.375 14.1088 23.375C19.9894 23.375 23.2054 18.4704 23.2054 14.2166C23.2054 14.0771 23.2023 13.9381 23.1961 13.8003C23.8212 13.3466 24.3632 12.7799 24.7917 12.1344Z" fill="white"/>
</g>
</g>
</svg>
